#!OML:ASF X:\für Bonn\!DataBase\2005_08_11_Bastian_Final\c3d\Bastian.ASF
:FULLY-SPECIFIED
:DEGREES
225
root -1.58888 17.3388 -3.20086 528.357 -121.796 -45.3785
lowerback 25.8765 -2.19917 9.4818
upperback 1.9815 0.0388591 1.73857
thorax -12.2491 -0.45338 -3.47143
lowerneck -40.9346 -1.01237 3.96743
upperneck -4.66401 -4.75748 1.45837
head 4.04068 -2.96808 -0.785391
rclavicle 7.31528e-014 3.49861e-014
rhumerus 64.6278 0.0999527 -13.0058
rradius 39.8175
rwrist -107.138
rhand -59.3377 -57.4645
rfingers 7.12502
rthumb -31.5211 -84.7653
lclavicle 7.31528e-014 3.49861e-014
lhumerus 48.9232 26.2096 -46.0016
lradius 40.7158
lwrist 83.1152
lhand -35.4931 -12.0758
lfingers 7.12502
lthumb -8.62068 17.7282
rfemur -4.21903 -5.49065 -11.4315
rtibia 46.0608
rfoot -12.0992 -8.66436
rtoes 23.0284
lfemur -7.84758 9.09735 26.1413
ltibia 70.5334
lfoot -23.9226 9.24895
ltoes 2.57979
226
root -1.5271 17.3599 -3.33799 530.348 -121.758 -47.9338
lowerback 26.9047 -2.44996 9.82429
upperback 2.0814 -0.0254362 1.99878
thorax -12.6946 -0.505034 -3.33823
lowerneck -41.3799 -1.04227 3.86126
upperneck -4.55151 -4.77627 1.4268
head 4.1202 -2.97527 -0.788361
rclavicle 1.27222e-014 1.90833e-014
rhumerus 64.7338 -0.48903 -12.6531
rradius 40.0999
rwrist -108.06
rhand -59.3539 -57.6912
rfingers 7.12502
rthumb -31.5366 -84.989
lclavicle 1.27222e-014 1.90833e-014
lhumerus 47.9277 26.8847 -46.8856
lradius 40.6409
lwrist 82.9863
lhand -35.913 -12.3838
lfingers 7.12502
lthumb -9.02589 17.4031
rfemur -6.6973 -5.50317 -11.8516
rtibia 46.4806
rfoot -12.8949 -9.47195
rtoes 24.2876
lfemur -7.11614 8.37539 25.3912
ltibia 69.0373
lfoot -23.7679 9.27592
ltoes 3.73865
227
root -1.46544 17.3779 -3.47611 532.303 -121.808 -50.4343
lowerback 27.9627 -2.72892 10.1615
upperback 1.79802 -0.103948 2.15208
thorax -12.772 -0.551924 -3.13403
lowerneck -41.8517 -1.0914 3.71105
upperneck -4.41892 -4.79938 1.40839
head 4.20982 -2.98163 -0.781339
rclavicle -5.88403e-014 -4.45278e-014
rhumerus 64.8824 -1.11107 -12.2654
rradius 40.356
rwrist -109.035
rhand -59.3465 -57.8857
rfingers 7.12502
rthumb -31.5295 -85.1848
lclavicle -5.88403e-014 -4.45278e-014
lhumerus 47.0432 27.7116 -47.3745
lradius 40.5709
lwrist 82.7371
lhand -36.2998 -12.8513
lfingers 7.12502
lthumb -9.39909 16.9192
rfemur -9.19771 -5.46229 -12.3409
rtibia 46.9325
rfoot -13.7563 -10.5257
rtoes 27.142
lfemur -6.39196 7.64116 24.6098
ltibia 67.457
lfoot -23.5446 9.21023
ltoes 5.44474
228
root -1.39812 17.3968 -3.61551 534.143 -121.924 -52.8346
lowerback 28.9344 -2.99074 10.422
upperback 1.89472 -0.195962 2.37985
thorax -13.1069 -0.60725 -2.97078
lowerneck -42.2603 -1.18968 3.45078
upperneck -4.32649 -4.82752 1.44941
head 4.2838 -2.98444 -0.736919
rclavicle -6.52014e-014 -1.74931e-014
rhumerus 64.9982 -1.76248 -11.8416
rradius 40.6454
rwrist -110.038
rhand -59.3302 -58.1492
rfingers 7.12502
rthumb -31.5139 -85.4515
lclavicle -6.52014e-014 -1.74931e-014
lhumerus 46.8213 29.0191 -46.465
lradius 40.3817
lwrist 81.5307
lhand -36.3514 -13.2501
lfingers 7.12502
lthumb -9.44891 16.5181
rfemur -11.7329 -5.25031 -12.9223
rtibia 47.4154
rfoot -14.898 -11.9806
rtoes 30.2226
lfemur -5.63196 6.90551 23.8221
ltibia 65.7784
lfoot -23.1942 9.1551
ltoes 7.16466
229
root -1.32524 17.412 -3.75758 535.873 -122.118 -55.1505
lowerback 29.8721 -3.25623 10.6193
upperback 2.01481 -0.311803 2.5935
thorax -13.395 -0.666103 -2.77713
lowerneck -42.4746 -1.37741 3.04949
upperneck -4.35952 -4.89087 1.61109
head 4.30389 -2.99544 -0.631012
rclavicle 3.18055e-015 -7.95139e-015
rhumerus 65.1276 -2.40991 -11.4805
rradius 40.9172
rwrist -111.007
rhand -59.3285 -58.3751
rfingers 7.12502
rthumb -31.5123 -85.6776
lclavicle 3.18055e-015 -7.95139e-015
lhumerus 47.2521 30.8084 -44.3127
lradius 40.1119
lwrist 79.5608
lhand -36.1736 -13.5853
lfingers 7.12502
lthumb -9.27728 16.1905
rfemur -14.322 -5.13535 -13.5469
rtibia 47.9411
rfoot -16.0193 -13.7966
rtoes 32.3596
lfemur -4.84151 6.23921 23.0529
ltibia 63.9878
lfoot -22.9939 9.12439
ltoes 6.06128
230
root -1.24509 17.4229 -3.90208 537.589 -122.392 -57.4551
lowerback 30.7176 -3.52046 10.8035
upperback 2.15635 -0.435481 2.81981
thorax -13.6103 -0.722563 -2.55818
lowerneck -42.594 -1.63246 2.47709
upperneck -4.45166 -4.95388 1.88924
head 4.3029 -2.99376 -0.45738
rclavicle 2.40132e-013 -1.27222e-014
rhumerus 65.2741 -3.07658 -11.0931
rradius 41.1508
rwrist -111.972
rhand -59.318 -58.5804
rfingers 7.12502
rthumb -31.5024 -85.8849
lclavicle 2.40132e-013 -1.27222e-014
lhumerus 48.1847 32.9343 -41.2833
lradius 39.8442
lwrist 77.407
lhand -35.6934 -14.1747
lfingers 7.12502
lthumb -8.81391 15.6212
rfemur -16.9313 -5.1512 -14.201
rtibia 48.5
rfoot -17.1715 -15.8247
rtoes 32.5512
lfemur -4.04435 5.64287 22.3773
ltibia 62.0843
lfoot -22.9042 9.0378
ltoes 3.21777
231
root -1.15916 17.4296 -4.04929 539.13 -122.765 -59.6365
lowerback 31.5369 -3.80061 10.9726
upperback 2.33122 -0.590259 3.00194
thorax -13.7718 -0.788328 -2.36448
lowerneck -42.5685 -1.92938 1.86389
upperneck -4.63366 -5.04045 2.20706
head 4.2611 -3.0015 -0.264629
rclavicle 1.90833e-014 7.95139e-015
rhumerus 65.374 -3.76202 -10.7051
rradius 41.3873
rwrist -113.005
rhand -59.3054 -58.8418
rfingers 7.12502
rthumb -31.4903 -86.1487
lclavicle 1.90833e-014 7.95139e-015
lhumerus 49.3315 35.1855 -38.0595
lradius 39.6161
lwrist 75.6247
lhand -35.072 -15.1717
lfingers 7.12502
lthumb -8.21423 14.6487
rfemur -19.4413 -5.1911 -14.997
rtibia 49.1114
rfoot -18.6414 -17.7589
rtoes 33.1643
lfemur -3.21727 5.02486 21.7243
ltibia 60.0943
lfoot -22.6658 8.97188
ltoes 0.282852
232
root -1.06761 17.4352 -4.20015 540.647 -123.227 -61.8413
lowerback 32.326 -4.10198 11.1939
upperback 2.51868 -0.752537 3.18228
thorax -13.8977 -0.857165 -2.19402
lowerneck -42.4023 -2.24579 1.20451
upperneck -4.89408 -5.12221 2.56697
head 4.18351 -3.00361 -0.0474848
rclavicle 1.33583e-013 9.54166e-015
rhumerus 65.4472 -4.44527 -10.3164
rradius 41.6091
rwrist -113.992
rhand -59.2901 -59.114
rfingers 7.12502
rthumb -31.4758 -86.4237
lclavicle 1.33583e-013 9.54166e-015
lhumerus 50.8056 37.5371 -34.3896
lradius 39.442
lwrist 73.9283
lhand -34.3207 -16.6185
lfingers 7.12502
lthumb -7.48912 13.2289
rfemur -21.896 -5.35326 -15.8156
rtibia 49.7686
rfoot -20.0298 -19.3782
rtoes 34.599
lfemur -2.39609 4.42439 21.1917
ltibia 58.0413
lfoot -22.2914 8.97028
ltoes -1.14142
233
root -0.976179 17.4333 -4.35304 542.038 -123.77 -63.9956
lowerback 33.1342 -4.40067 11.3779
upperback 2.72964 -0.912444 3.39111
thorax -13.9959 -0.918978 -1.97036
lowerneck -42.1495 -2.53588 0.572291
upperneck -5.21234 -5.175 2.83989
head 4.07561 -3.00183 0.140994
rclavicle 1.11319e-014 -1.59028e-015
rhumerus 65.5363 -5.12894 -10.0677
rradius 41.8161
rwrist -114.864
rhand -59.2857 -59.4462
rfingers 7.12502
rthumb -31.4716 -86.7567
lclavicle 1.11319e-014 -1.59028e-015
lhumerus 52.6939 39.9502 -30.1148
lradius 39.3311
lwrist 72.1228
lhand -33.3715 -18.4396
lfingers 7.12502
lthumb -6.57289 11.4384
rfemur -24.3314 -5.46872 -16.7089
rtibia 50.4791
rfoot -20.8949 -20.7198
rtoes 35.6762
lfemur -1.55119 3.75399 20.6831
ltibia 55.9507
lfoot -21.9185 9.09149
ltoes -2.45845
234
root -0.887917 17.4211 -4.5059 543.27 -124.416 -66.0832
lowerback 34.1123 -4.7572 11.6496
upperback 2.86867 -1.08345 3.52681
thorax -14.131 -0.990528 -1.81268
lowerneck -41.9023 -2.76692 0.0618214
upperneck -5.48723 -5.20488 3.01723
head 3.97728 -2.99524 0.280939
rclavicle 3.33958e-014 -2.54444e-014
rhumerus 65.6555 -5.83974 -10.1848
rradius 41.889
rwrist -115.398
rhand -59.2498 -59.7789
rfingers 7.12502
rthumb -31.4373 -87.0961
lclavicle 3.33958e-014 -2.54444e-014
lhumerus 54.6202 42.1837 -25.9136
lradius 39.3215
lwrist 70.5417
lhand -32.448 -20.7193
lfingers 7.12502
lthumb -5.68132 9.18458
rfemur -26.7109 -5.58209 -17.6947
rtibia 51.2702
rfoot -21.9821 -21.6155
rtoes 37.5253
lfemur -0.684436 3.10012 20.2078
ltibia 53.8336
lfoot -21.5029 9.28508
ltoes -3.23807
235
root -0.798669 17.4026 -4.66159 544.401 -125.157 -68.1566
lowerback 35.0998 -5.12774 11.9473
upperback 3.07688 -1.25255 3.67994
thorax -14.2867 -1.06242 -1.68959
lowerneck -41.6438 -2.89794 -0.244993
upperneck -5.76102 -5.19405 3.02335
head 3.86771 -2.98645 0.33715
rclavicle 3.97569e-014 -2.8625e-014
rhumerus 65.6885 -6.573 -10.2809
rradius 41.9953
rwrist -115.962
rhand -59.2175 -60.1205
rfingers 7.12502
rthumb -31.4066 -87.4437
lclavicle 3.97569e-014 -2.8625e-014
lhumerus 55.7249 44.0315 -22.8206
lradius 39.5268
lwrist 69.6627
lhand -31.7881 -23.4324
lfingers 7.12502
lthumb -5.04416 6.48761
rfemur -28.9673 -5.74219 -18.6994
rtibia 52.1685
rfoot -23.3165 -22.039
rtoes 40.2406
lfemur 0.187043 2.47528 19.8223
ltibia 51.6953
lfoot -21.0604 9.53235
ltoes -3.08456
236
root -0.705528 17.3795 -4.82014 545.464 -126.009 -70.2484
lowerback 36.0051 -5.5063 12.2742
upperback 3.3006 -1.42224 3.84985
thorax -14.3798 -1.13145 -1.56131
lowerneck -41.3123 -2.86435 -0.232933
upperneck -6.00959 -5.10139 2.73987
head 3.74287 -2.96479 0.257642
rclavicle -1.25632e-013 -4.45278e-014
rhumerus 65.652 -7.25874 -10.3601
rradius 42.1042
rwrist -116.507
rhand -59.1854 -60.605
rfingers 7.12502
rthumb -31.3761 -87.9341
lclavicle -1.25632e-013 -4.45278e-014
lhumerus 55.8461 45.4005 -20.9364
lradius 39.905
lwrist 69.3729
lhand -31.5159 -26.349
lfingers 7.12502
lthumb -4.78127 3.57707
rfemur -31.1052 -5.96979 -19.7009
rtibia 53.1676
rfoot -24.1059 -22.2298
rtoes 41.9418
lfemur 1.08567 1.90158 19.5658
ltibia 49.5448
lfoot -20.6742 9.78539
ltoes -2.94369
237
root -0.609159 17.3491 -4.98134 546.419 -126.944 -72.3416
lowerback 36.7944 -5.85984 12.5811
upperback 3.60267 -1.58302 4.0518
thorax -14.3243 -1.18591 -1.39504
lowerneck -40.9359 -2.69962 0.0253298
upperneck -6.33557 -4.94391 2.2498
head 3.57666 -2.93648 0.0805698
rclavicle 1.28812e-013 -5.08889e-014
rhumerus 65.5493 -7.99462 -10.436
rradius 42.2284
rwrist -117.067
rhand -59.1823 -61.1323
rfingers 7.12502
rthumb -31.3731 -88.462
lclavicle 1.28812e-013 -5.08889e-014
lhumerus 55.2549 46.3918 -19.8683
lradius 40.346
lwrist 69.2876
lhand -31.5613 -29.1648
lfingers 7.12502
lthumb -4.82512 0.760221
rfemur -33.1507 -6.12345 -20.7415
rtibia 54.2308
rfoot -24.5157 -22.405
rtoes 42.982
lfemur 2.0175 1.36966 19.4238
ltibia 47.4036
lfoot -20.4587 9.99815
ltoes -3.31956
238
root -0.50623 17.3152 -5.14581 547.273 -127.976 -74.4121
lowerback 37.565 -6.22454 12.9513
upperback 3.89951 -1.72741 4.25328
thorax -14.2564 -1.2353 -1.2651
lowerneck -40.5322 -2.5449 0.307556
upperneck -6.60821 -4.80522 1.71626
head 3.42628 -2.91612 -0.117519
rclavicle -1.78111e-013 -1.27222e-014
rhumerus 65.3547 -8.693 -10.5966
rradius 42.3402
rwrist -117.479
rhand -59.1022 -61.6675
rfingers 7.12502
rthumb -31.2967 -89.012
lclavicle -1.78111e-013 -1.27222e-014
lhumerus 53.6054 46.8621 -19.9751
lradius 40.9371
lwrist 69.6744
lhand -32.0306 -31.6013
lfingers 7.12502
lthumb -5.27828 -1.68703
rfemur -35.0629 -6.2662 -21.838
rtibia 55.3012
rfoot -24.9847 -22.4129
rtoes 44.5108
lfemur 2.90637 0.855263 19.387
ltibia 45.3279
lfoot -20.3318 10.1829
ltoes -3.88554
